<svg width="116" height="35" viewBox="0 0 116 35" fill="none" xmlns="http://www.w3.org/2000/svg">
<path d="M112.401 34.5113V27.4925H115.999V20.9552H112.401V12.9229H105.23V34.5113H112.401Z" fill="#009FDF"/>
<path d="M97.5517 20.9558L108.498 0.40625H100.314L88.4805 22.6282V27.4932H102.695V20.9558H97.5517Z" fill="#009FDF"/>
<path d="M83.6665 34.5121C81.158 34.5121 78.7255 34.5121 76.1663 34.5121C76.1663 26.4544 76.1663 18.4221 76.1663 10.187C74.0885 11.5807 72.0361 12.3662 69.6289 12.3662C69.6289 9.959 69.6289 7.62785 69.6289 5.19535C73.303 5.01798 76.1663 3.42164 78.2947 0.457031C80.0431 0.457031 81.8168 0.457031 83.6665 0.457031C83.6665 11.758 83.6665 23.0844 83.6665 34.5121Z" fill="#009FDF"/>
<path d="M59.7221 21.4119L59.9501 21.3105C61.2424 20.7784 62.3573 20.0183 63.2948 19.0807C64.2324 18.1432 64.9672 17.003 65.4739 15.736C65.9807 14.4691 66.2341 13.0755 66.2341 11.6058C66.2341 9.40139 65.7273 7.42498 64.6885 5.75264C63.6749 4.05495 62.2306 2.73735 60.4316 1.79982C58.6325 0.862292 56.5294 0.380859 54.1729 0.380859H49.9667V6.94355H53.8435C54.7304 6.94355 55.5666 7.14626 56.3267 7.57701C57.0869 8.00777 57.695 8.56522 58.1258 9.2747C58.5565 9.98418 58.7846 10.7697 58.7846 11.6058C58.7846 12.5434 58.5565 13.3795 58.1258 14.089C57.695 14.7985 57.0869 15.3813 56.3267 15.7867C55.5666 16.1921 54.7304 16.3948 53.8182 16.3948H49.9414V22.5268H52.3739L59.0126 34.4612H66.9436L59.7221 21.4119Z" fill="#009FDF"/>
<path d="M39.5039 0.380859V34.5119H46.9281V0.380859H39.5039Z" fill="#009FDF"/>
<path d="M17.813 34.9419C14.5697 34.9419 11.5797 34.1564 8.8685 32.6107C6.13193 31.0398 3.97816 28.9367 2.38183 26.2508C0.785496 23.5649 0 20.6509 0 17.4583C0 14.2656 0.785496 11.3517 2.38183 8.66579C3.97816 6.00524 6.13193 3.8768 8.8685 2.33115C11.6051 0.760157 14.595 0 17.813 0C20.2709 0 22.7034 0.506772 25.0345 1.52031C27.391 2.53386 29.3927 4.07951 31.0904 6.18261C32.7881 8.28571 33.8523 10.8702 34.3084 13.9616H26.3775C25.9974 12.3652 25.3892 11.073 24.5531 10.0594C23.7169 9.04587 22.7034 8.31105 21.5124 7.82962C20.3215 7.37353 19.0039 7.12014 17.585 7.12014C15.7606 7.12014 14.1136 7.5509 12.6186 8.38707C11.1236 9.22324 9.93272 10.4395 9.07121 12.0105C8.18436 13.5815 7.7536 15.4059 7.7536 17.509C7.7536 19.6627 8.18436 21.5124 9.04587 23.0581C9.90738 24.6291 11.0983 25.82 12.5933 26.6308C14.0882 27.4417 15.7606 27.8471 17.585 27.8471C19.0293 27.8471 20.3215 27.619 21.5124 27.1376C22.7034 26.6562 23.6916 25.9214 24.5531 24.9078C25.3892 23.8943 25.9974 22.602 26.3775 21.031H34.3338C33.8777 24.097 32.8134 26.6815 31.1411 28.7846C29.4688 30.8877 27.4417 32.4334 25.0852 33.4469C22.7287 34.4351 20.2962 34.9419 17.813 34.9419Z" fill="#009FDF"/>
</svg>
