<?xml version="1.0" encoding="utf-8"?>
<!-- Generator: Adobe Illustrator 19.2.1, SVG Export Plug-In . SVG Version: 6.00 Build 0)  -->
<svg version="1.1" id="layer" xmlns="http://www.w3.org/2000/svg" xmlns:xlink="http://www.w3.org/1999/xlink" x="0px" y="0px"
	 viewBox="0 0 652 652" style="enable-background:new 0 0 652 652;" xml:space="preserve">
<style type="text/css">
	.st0{fill:#009ADA;}
</style>
<g>
	<g>
		<path class="st0" d="M216.5,294.8c1.8,0,2.5,1.4,1.3,2.8l-12.6,14.7l12.6,14.7c1.2,1.4,0.5,2.8-1.3,2.8h-32.1
			c-0.2,0-1.1-0.4-1.2-0.5l-15.4-15.8c-0.6-0.6-0.6-1.8,0-2.4l15.4-15.8c0.1-0.1,1-0.5,1.2-0.5L216.5,294.8L216.5,294.8z
			 M207.5,349.3l-8.1,8.2c-0.8,0.8-2,0.8-2.8,0l-8.1-8.2c-0.8-0.8-0.8-2.1,0-2.9l8.1-8.2c0.8-0.8,2-0.8,2.8,0l8.1,8.2
			C208.2,347.2,208.2,348.5,207.5,349.3 M180,366.4c0,1.8-1.4,2.5-2.8,1.3l-14.7-12.6l-14.7,12.6c-1.4,1.2-2.8,0.5-2.8-1.3v-32.1
			c0-0.2,0.4-1.1,0.5-1.2l15.8-15.4c0.6-0.6,1.8-0.6,2.4,0l15.8,15.4c0.1,0.1,0.5,1,0.5,1.2V366.4z M141.7,329.4
			c-0.1,0.1-1,0.5-1.2,0.5h-32.1c-1.8,0-2.5-1.4-1.3-2.8l12.6-14.7l-12.6-14.7c-1.2-1.4-0.5-2.8,1.3-2.8h32.1c0.2,0,1.1,0.4,1.2,0.5
			l15.4,15.8c0.6,0.6,0.6,1.8,0,2.4L141.7,329.4z M136.4,349.3l-8.1,8.2c-0.8,0.8-2,0.8-2.8,0l-8.1-8.2c-0.8-0.8-0.8-2.1,0-2.9
			l8.1-8.2c0.8-0.8,2-0.8,2.8,0l8.1,8.2C137.2,347.2,137.2,348.5,136.4,349.3 M117.7,275.6l8.1-8.2c0.8-0.8,2-0.8,2.8,0l8.1,8.2
			c0.8,0.8,0.8,2.1,0,2.9l-8.1,8.2c-0.8,0.8-2,0.8-2.8,0l-8.1-8.2C117,277.6,117,276.4,117.7,275.6 M144.9,258.2
			c0-1.8,1.4-2.5,2.8-1.3l14.7,12.6l14.7-12.6c1.4-1.2,2.8-0.5,2.8,1.3v32.1c0,0.2-0.4,1.1-0.5,1.2L163.6,307
			c-0.6,0.6-1.8,0.6-2.4,0l-15.8-15.4c-0.1-0.1-0.5-1-0.5-1.2V258.2z M188.5,275.6l8.1-8.2c0.8-0.8,2-0.8,2.8,0l8.1,8.2
			c0.8,0.8,0.8,2.1,0,2.9l-8.1,8.2c-0.8,0.8-2,0.8-2.8,0l-8.1-8.2C187.7,277.6,187.7,276.4,188.5,275.6 M251,245.8
			c6.8-6.7,1.8-11.1-2.6-11.1c0,0-90.8,0.6-95.3,0.6c-4.8-0.1-9.6,1.6-13.3,5.1l-7.6,7.1l-50.4,49.5c-7.2,6.8-2.7,13.1,4.5,19.9
			l9.7,9c0,0,2.1,3.7-0.4,6.5c-2.5,2.8-4.5,4.4-4.5,4.4c-3.2,3.2-3.2,8.4,0,11.6l34.6,34.1c3.2,3.2,8.5,3.2,11.8,0
			c0,0,4.6-4.1,5.8-5.7c3.2-4.1,6.2-0.3,6.2-0.3l14.5,13.4c7.2,6.8,12.7,13.7,19.9,6.9l59.5-59.9c0,0,13.4-11.2,4.4-19.5
			c-4.5-5.1-23.6-23.2-30-30.9c-2.3-2.7-2.7-4.8,0.7-8.6C226.2,270.4,233.3,262.7,251,245.8"/>
		<path class="st0" d="M44.1,276.1c1.4-1.4,3.6-1.3,4.9,0l14.5,14.5c1.4,1.4,1.4,3.6,0,4.9L49,309.9c-1.4,1.4-3.6,1.3-4.9,0
			l-14.4-14.5c-1.4-1.4-1.4-3.6,0-4.9L44.1,276.1z"/>
		<path class="st0" d="M132.6,303.1c0.8-0.8,2-0.8,2.8,0l8.1,8.2c0.8,0.8,0.8,2.1,0,2.9l-8.1,8.2c-0.8,0.8-2,0.8-2.8,0l-8.1-8.2
			c-0.8-0.8-0.8-2.1,0-2.9L132.6,303.1z"/>
		<path class="st0" d="M187.1,303.1c0.8-0.8,2-0.8,2.8,0l8.1,8.2c0.8,0.8,0.8,2.1,0,2.9l-8.1,8.2c-0.8,0.8-2,0.8-2.8,0l-8.1-8.2
			c-0.8-0.8-0.8-2.1,0-2.9L187.1,303.1z"/>
		<path class="st0" d="M171.7,284.4c0.8,0.8,0.8,2,0,2.8l-8.2,8.1c-0.8,0.8-2.1,0.8-2.9,0l-8.2-8.1c-0.8-0.8-0.8-2,0-2.8l8.2-8.1
			c0.8-0.8,2.1-0.8,2.9,0L171.7,284.4z"/>
		<path class="st0" d="M171.7,338.9c0.8,0.8,0.8,2,0,2.8l-8.2,8.1c-0.8,0.8-2.1,0.8-2.9,0l-8.2-8.1c-0.8-0.8-0.8-2,0-2.8l8.2-8.1
			c0.8-0.8,2.1-0.8,2.9,0L171.7,338.9z"/>
		<path class="st0" d="M58.5,343.8l-9.7,9.3c-0.9,0.8-2.3,0.8-3.2,0l-9.7-9.4c-0.9-0.8-0.9-2.2,0-3.1l9.7-9.3c0.9-0.8,2.3-0.8,3.2,0
			l9.7,9.4C59.4,341.6,59.4,343,58.5,343.8 M72.3,337.7l-21.6-21.6c-1-1-2.3-1.5-3.7-1.5c-1.3,0-2.7,0.5-3.7,1.5l-21.6,21.6
			c-2,2-2,5.3,0,7.4l18.8,18.8l-7.9,7.9c-1.4,1.4-1.4,3.6,0,4.9l1.4,1.6c0.7,0.7,1.6,1,2.5,1c0.9,0,1.8-0.3,2.5-1l33.4-33.2
			C74.3,343,74.3,339.7,72.3,337.7"/>
	</g>
	<polygon class="st0" points="375.8,235 375.8,248.3 314.6,248.3 314.6,284.7 366.8,284.7 366.8,297.1 314.6,297.1 314.6,334.4 
		375.8,334.4 375.8,347.8 298.8,347.8 298.8,235 	"/>
	<path class="st0" d="M436.3,255.5h-2.6l-19.3,53.9h41.3L436.3,255.5z M410,321.9l-9.7,25.9h-16.6L428.1,235h13.7l44.4,112.8h-16.6
		l-9.7-25.9H410z"/>
	<g>
		<path class="st0" d="M534.4,334.4c15.7,0,26.5-6.7,26.5-17.8c0-9.1-5.9-15.9-17.8-17.3c-5.6-0.7-10-1.3-16.6-2.1
			c-21-2.7-31.9-15.2-31.9-31c0-18.8,14-32.3,39.3-32.3c14.5,0,27.4,4.5,38.4,10.9l-8.7,11.9c-9.1-5.1-19.6-8.5-30.6-8.5
			c-12,0-22.6,5.8-22.6,18.3c0,7.6,6,14.6,19.2,16.4c3.4,0.5,8.1,1.1,14.2,1.8c22.7,2.5,32.9,16.9,32.9,31.8
			c0,20.1-15.9,32.1-42.5,32.1c-17.6,0-32.9-4.8-45.6-14.5l10.3-10.9C508.6,330.1,521.2,334.4,534.4,334.4"/>
	</g>
	<polygon class="st0" points="303.6,376.4 303.6,385.4 314.3,385.4 314.3,388.6 303.6,388.6 303.6,398.8 319.3,398.8 319.3,402.1 
		299.4,402.1 299.4,373.2 318.6,373.2 318.6,376.4 	"/>
	<g>
		<path class="st0" d="M336.8,388.1c0-1.4-0.3-2.5-0.9-3.2c-0.6-0.7-1.5-1.1-2.7-1.1c-0.9,0-1.9,0.2-2.9,0.7c-1,0.5-2,1.1-3,2.1
			l-0.1,15.5h-3.7v-20.8h3.4v3.1l0.3-0.3c1.4-1.1,2.6-1.9,3.7-2.4c1.1-0.5,2.3-0.7,3.5-0.7c2,0,3.4,0.5,4.5,1.6
			c1.1,1,1.6,2.5,1.6,4.5v15.1h-3.8V388.1z"/>
		<path class="st0" d="M356,381.3v2.9h-5v12.5c0,1.1,0.2,1.8,0.6,2.3c0.4,0.4,1.2,0.6,2.2,0.6c0.5,0,1,0,1.4,0
			c0.3,0,0.5-0.1,0.7-0.1l0.1,2.8c-0.5,0.1-1,0.2-1.5,0.3c-0.6,0.1-1.3,0.1-2.1,0.1c-1.8,0-3.1-0.4-3.9-1c-0.8-0.7-1.2-1.8-1.2-3.3
			v-14.1H344v-2.9h3.2v-6.8h3.8v6.8L356,381.3L356,381.3z"/>
		<path class="st0" d="M363.4,385.2c-0.9,1-1.4,2.4-1.5,4.3l0,0.2l10.3,0l0-0.2c0-1.8-0.5-3.2-1.4-4.2c-0.9-1.1-2.1-1.6-3.6-1.6
			C365.6,383.6,364.3,384.1,363.4,385.2 M363.4,397.9c1,1.2,2.5,1.8,4.4,1.8c1.2,0,2.3-0.3,3.3-0.9c0.9-0.5,1.6-1.3,2.3-2.3l2.8,1.5
			c-1,1.5-2.1,2.6-3.5,3.4c-1.5,0.8-3.2,1.2-5.1,1.2c-3.1,0-5.4-0.9-7.1-2.7c-1.6-1.8-2.5-4.4-2.5-7.9c0-3.6,0.8-6.3,2.4-8.2
			c1.6-1.9,3.9-2.9,6.9-2.9c2.7,0,4.9,0.9,6.4,2.8c1.6,1.8,2.4,4.4,2.4,7.6l0,0.6l0,0.4h-14.2v0.6
			C361.8,395,362.3,396.7,363.4,397.9"/>
		<path class="st0" d="M387.1,386c-1.1,0.9-2,2.2-2.7,3.9l0,12.2h-3.9v-20.8h3.7v4l0.4,0.1c0.7-1.5,1.6-2.5,2.6-3.3
			c1-0.7,2.1-1.1,3.4-1.1l0.5,0l0,3.6C389.5,384.6,388.2,385.1,387.1,386"/>
		<path class="st0" d="M394.4,381.3h2.8l0.6,2.7l0.2-0.3c0.9-1,1.8-1.7,2.7-2.2c1-0.4,2-0.7,3.2-0.7c2.8,0,5.1,1,6.7,2.9
			c1.6,1.9,2.5,4.6,2.5,8c0,3.4-0.8,6-2.5,7.9c-1.6,1.9-3.9,2.8-6.7,2.8c-1.1,0-2.2-0.2-3.1-0.6c-0.9-0.4-1.7-1-2.4-1.8l-0.3-0.4
			v10.2h-3.7V381.3z M407.7,397.7c1-1.4,1.5-3.3,1.5-5.8c0-2.6-0.5-4.6-1.5-6c-1-1.4-2.5-2.1-4.4-2.1c-1,0-1.9,0.2-2.7,0.7
			c-0.8,0.4-1.6,1.1-2.4,1.9l-0.1,10.6c0.9,1,1.7,1.6,2.6,2c0.9,0.4,1.8,0.7,2.8,0.7C405.3,399.7,406.7,399,407.7,397.7"/>
		<path class="st0" d="M424.1,386c-1.1,0.9-2,2.2-2.7,3.9l0,12.2h-3.9v-20.8h3.7v4l0.4,0.1c0.8-1.5,1.6-2.5,2.6-3.3
			c1-0.7,2.1-1.1,3.4-1.1l0.5,0l0,3.6C426.6,384.6,425.3,385.1,424.1,386"/>
	</g>
	<path class="st0" d="M435.4,402.1h-3.7v-20.8h3.7V402.1z M435.5,376.9h-4.1v-3.7h4.1V376.9z"/>
	<g>
		<path class="st0" d="M447.5,383.7c-1,0-1.9,0.2-2.5,0.7c-0.6,0.5-1,1.1-1,1.9c0,0.7,0.3,1.3,0.9,1.8c0.6,0.5,1.7,1,3.5,1.6
			c3,1,5,2,6,3c1,0.9,1.5,2.1,1.5,3.6c0,1.8-0.7,3.3-2.2,4.5c-1.4,1.1-3.3,1.7-5.7,1.7c-1.8,0-3.4-0.3-4.9-1
			c-1.4-0.7-2.6-1.6-3.5-2.8l2.6-2.1c0.9,1.1,1.9,1.9,2.8,2.4c1,0.5,2.1,0.8,3.2,0.8c1.2,0,2.1-0.3,2.8-0.8c0.8-0.6,1.1-1.3,1.1-2.3
			c0-1.5-1.6-2.7-4.6-3.7l-1.2-0.4c-2.3-0.8-3.9-1.7-4.8-2.6c-0.9-0.9-1.3-2-1.3-3.4c0-1.7,0.7-3,2-4.1c1.3-1.1,3.1-1.6,5.2-1.6
			c1.6,0,3,0.3,4.2,0.8c1.2,0.5,2.3,1.3,3.3,2.3l-2.3,2.2c-0.8-0.8-1.6-1.4-2.4-1.8C449.4,383.9,448.5,383.7,447.5,383.7"/>
		<path class="st0" d="M463.8,385.2c-0.9,1-1.4,2.4-1.5,4.3l0,0.2l10.3,0l0-0.2c0-1.8-0.5-3.2-1.4-4.2c-0.9-1.1-2.1-1.6-3.6-1.6
			C466,383.6,464.8,384.1,463.8,385.2 M463.8,397.9c1,1.2,2.5,1.8,4.4,1.8c1.2,0,2.3-0.3,3.3-0.9c0.9-0.5,1.6-1.3,2.3-2.3l2.8,1.5
			c-1,1.5-2.1,2.6-3.5,3.4c-1.5,0.8-3.2,1.2-5.1,1.2c-3.1,0-5.4-0.9-7.1-2.7c-1.6-1.8-2.5-4.4-2.5-7.9c0-3.6,0.8-6.3,2.4-8.2
			c1.6-1.9,3.9-2.9,6.9-2.9c2.7,0,4.9,0.9,6.4,2.8c1.6,1.8,2.3,4.4,2.3,7.6l0,0.5l0,0.4h-14.2v0.6
			C462.3,395,462.8,396.7,463.8,397.9"/>
	</g>
	<polygon class="st0" points="497.8,376.4 497.8,385.4 508.5,385.4 508.5,388.6 497.8,388.6 497.8,398.8 513.5,398.8 513.5,402.1 
		493.6,402.1 493.6,373.2 512.8,373.2 512.8,376.4 	"/>
	<g>
		<path class="st0" d="M523.5,383.7c-1,0-1.9,0.2-2.5,0.7c-0.6,0.5-1,1.1-1,1.9c0,0.7,0.3,1.3,0.9,1.8c0.6,0.5,1.7,1,3.5,1.6
			c3,1,5,2,6,3c1,0.9,1.5,2.1,1.5,3.6c0,1.8-0.7,3.3-2.2,4.5c-1.4,1.1-3.3,1.7-5.7,1.7c-1.8,0-3.4-0.3-4.9-1
			c-1.4-0.7-2.5-1.6-3.5-2.8l2.6-2.1c1,1.1,1.9,1.9,2.8,2.4c1,0.5,2.1,0.8,3.2,0.8c1.2,0,2.1-0.3,2.8-0.8c0.8-0.6,1.1-1.3,1.1-2.3
			c0-1.5-1.6-2.7-4.6-3.7l-1.2-0.4c-2.3-0.8-3.9-1.7-4.8-2.6c-0.9-0.9-1.3-2-1.3-3.4c0-1.7,0.7-3,2-4.1c1.3-1.1,3.1-1.6,5.2-1.6
			c1.6,0,3,0.3,4.2,0.8c1.2,0.5,2.3,1.3,3.3,2.3l-2.3,2.2c-0.8-0.8-1.6-1.4-2.4-1.8C525.4,383.9,524.5,383.7,523.5,383.7"/>
		<path class="st0" d="M545.6,381.3v2.9h-5v12.5c0,1.1,0.2,1.8,0.6,2.3c0.4,0.4,1.2,0.6,2.2,0.6c0.5,0,1,0,1.4,0
			c0.3,0,0.5-0.1,0.7-0.1l0.1,2.8c-0.5,0.1-1,0.2-1.5,0.3c-0.6,0.1-1.3,0.1-2.1,0.1c-1.8,0-3.1-0.4-3.9-1c-0.8-0.7-1.2-1.8-1.2-3.3
			v-14.1h-3.2v-2.9h3.2v-6.8h3.8v6.8L545.6,381.3L545.6,381.3z"/>
		<path class="st0" d="M552.7,397.6c1,1.4,2.4,2,4.2,2c1.8,0,3.2-0.7,4.2-2c1-1.3,1.4-3.3,1.4-5.8c0-2.5-0.5-4.5-1.4-5.8
			c-1-1.4-2.4-2-4.2-2c-1.8,0-3.2,0.7-4.2,2c-0.9,1.3-1.4,3.3-1.4,5.8C551.3,394.3,551.8,396.2,552.7,397.6 M563.9,399.7
			c-1.6,1.9-4,2.8-7,2.8c-3,0-5.3-0.9-7-2.8c-1.7-1.9-2.5-4.6-2.5-8c0-3.4,0.8-6.1,2.5-8c1.7-1.9,4-2.8,7-2.8c3,0,5.3,0.9,7,2.8
			c1.7,1.9,2.5,4.5,2.5,8C566.4,395.2,565.5,397.8,563.9,399.7"/>
		<path class="st0" d="M584,388.1c0-1.4-0.3-2.5-0.9-3.2c-0.6-0.7-1.5-1.1-2.7-1.1c-0.9,0-1.9,0.2-2.9,0.7c-1,0.5-1.9,1.1-3,2.1
			l-0.1,15.5h-3.7v-20.8h3.4v3.1l0.3-0.3c1.4-1.1,2.6-1.9,3.7-2.4c1.1-0.5,2.3-0.7,3.5-0.7c1.9,0,3.4,0.5,4.5,1.6
			c1.1,1,1.6,2.5,1.6,4.5v15.1H584V388.1z"/>
	</g>
	<path class="st0" d="M597.8,402.1h-3.7v-20.8h3.7V402.1z M598,376.9h-4.1v-3.7h4.1V376.9z"/>
	<g>
		<path class="st0" d="M608.6,393.3c-1.5,0.9-2.3,2-2.3,3.3c0,0.9,0.3,1.7,0.9,2.2c0.6,0.5,1.5,0.8,2.5,0.8c0.9,0,1.9-0.2,2.9-0.7
			c1-0.5,2.1-1.2,3.2-2.1l0.1-5.6l-0.2,0C612.4,391.8,610.1,392.5,608.6,393.3 M615.8,399.5l-0.2,0.2c-1,0.9-2.1,1.6-3.3,2
			c-1.2,0.4-2.4,0.7-3.6,0.7c-1.9,0-3.4-0.5-4.5-1.5c-1.1-1-1.6-2.3-1.6-4.1c0-2.2,1-3.9,3.1-5.2c2.1-1.3,5.5-2.4,10.2-3.1l0.2-1.8
			c0-0.9-0.4-1.7-1.2-2.2c-0.8-0.6-1.8-0.8-3.1-0.8c-1.2,0-2.2,0.2-3.1,0.7c-0.8,0.5-1.6,1.1-2.2,2l-2.9-1.4c1-1.4,2.1-2.4,3.4-3
			c1.4-0.7,3.1-1,5.2-1c2.4,0,4.3,0.6,5.6,1.6c1.3,1.1,2,2.6,2,4.5v12.1c0,0.5,0,0.9,0.1,1.4c0.1,0.4,0.2,0.9,0.3,1.4l-3.8,0.2
			L615.8,399.5z"/>
	</g>
</g>
</svg>
